<svg width="45" height="45" viewBox="0 0 45 45" fill="none" xmlns="http://www.w3.org/2000/svg">
<path d="M44.9948 22.0565C45.0072 9.9985 35.0601 0.0356008 23.0175 0.0231858C10.975 0.0107708 1.00725 9.9744 0.994815 22.0324C0.982406 34.0691 10.9296 44.0108 22.9722 44.0232C35.0147 44.0356 44.9824 34.0932 44.9948 22.0565ZM16.5717 19.6666L25.5805 11.2119C26.3685 10.4684 27.56 10.4484 28.2188 11.1508C29.0052 11.9385 29.004 13.1294 28.2373 13.8517L19.5267 22.0302L28.2204 30.2267C28.9856 30.9506 28.9844 32.1415 28.1964 32.9275C27.5361 33.6074 26.3446 33.6061 25.5582 32.8397L16.5669 24.3877C15.0364 22.9613 15.0383 21.0899 16.5717 19.6666Z" fill="#D9D9D9"/>
</svg>
