<svg width="44" height="44" viewBox="0 0 44 44" fill="none" xmlns="http://www.w3.org/2000/svg">
<path d="M0.000244141 21.9893C0.000244141 34.0473 9.95769 43.9999 22.0002 43.9999C34.0428 43.9999 44.0002 34.026 44.0002 21.968C44.0002 9.93131 34.0428 -6.10352e-05 22.0002 -6.10352e-05C9.95769 -6.10352e-05 0.000244141 9.95257 0.000244141 21.9893ZM28.4258 24.3499L19.4258 32.8139C18.6385 33.5582 17.4471 33.5794 16.7875 32.8777C16.0002 32.0908 16.0002 30.8999 16.7662 30.1768L25.4683 21.9893L16.7662 13.8018C16.0002 13.0787 16.0002 11.8878 16.7875 11.101C17.4471 10.4204 18.6385 10.4204 19.4258 11.186L28.4258 19.6287C29.9577 21.0536 29.9577 22.925 28.4258 24.3499Z" fill="#D9D9D9"/>
</svg>
