<svg width="26" height="14" viewBox="0 0 26 14" fill="none" xmlns="http://www.w3.org/2000/svg">
<path d="M0 13.2786C0 13.7064 0.335102 14 0.847612 14H25.1524C25.6649 14 26 13.7064 26 13.2786V0.72139C26 0.285201 25.6649 0 25.1524 0H0.847612C0.335102 0 0 0.285201 0 0.72139V13.2786ZM2.07961 11.7687V2.23128C2.07961 1.92091 2.26687 1.76992 2.61183 1.76992H23.398C23.7331 1.76992 23.9303 1.92091 23.9303 2.23128V11.7687C23.9303 12.0707 23.7331 12.2301 23.398 12.2301H2.61183C2.26687 12.2301 2.07961 12.0707 2.07961 11.7687ZM3.16376 11.1144C3.16376 11.2403 3.24261 11.299 3.38059 11.299H10.7233C9.76725 10.4266 9.20546 8.90833 9.20546 6.98742C9.20546 5.08328 9.76725 3.5734 10.7134 2.69263H3.38059C3.24261 2.69263 3.16376 2.75974 3.16376 2.87717V11.1144ZM15.257 11.299H22.6293C22.7574 11.299 22.8362 11.2403 22.8362 11.1144V2.87717C22.8362 2.75974 22.7574 2.69263 22.6293 2.69263H15.2669C16.2426 3.5734 16.8143 5.08328 16.8143 6.98742C16.8143 8.90833 16.2328 10.4266 15.257 11.299ZM10.4473 6.98742C10.4473 9.49551 11.4723 11.1144 12.9606 11.1144C14.508 11.1144 15.5625 9.49551 15.5625 6.98742C15.5625 4.48772 14.508 2.87717 12.9606 2.87717C11.4723 2.87717 10.4473 4.48772 10.4473 6.98742Z" fill="white"/>
</svg>
