<svg width="24" height="20" viewBox="0 0 24 20" fill="none" xmlns="http://www.w3.org/2000/svg">
<path d="M13.6962 19.9394H15.8954C16.775 19.9394 17.2412 19.4461 17.2412 18.5671V6.48502L18.5783 18.7644C18.6663 19.6434 19.1765 20.0919 20.0473 19.9843L22.8007 19.6075C23.6715 19.4999 24.0762 18.9797 23.9882 18.1006L22.4224 3.66856C22.3344 2.78954 21.8242 2.34106 20.9534 2.4487L18.1913 2.82542C17.7602 2.87027 17.4436 3.03172 17.2412 3.28287V1.37235C17.2412 0.493328 16.775 0 15.8954 0H13.6962C12.8254 0 12.3592 0.493328 12.3592 1.37235V18.5671C12.3592 19.4461 12.8254 19.9394 13.6962 19.9394ZM1.34587 19.9394H2.8061C3.68576 19.9394 4.15197 19.4461 4.15197 18.5671V3.90177C4.15197 3.02275 3.68576 2.52943 2.8061 2.52943H1.34587C0.466217 2.52943 0 3.02275 0 3.90177V18.5671C0 19.4461 0.466217 19.9394 1.34587 19.9394ZM6.53584 19.9394H9.96649C10.8461 19.9394 11.3124 19.4461 11.3124 18.5671V7.08598C11.3124 6.20696 10.8461 5.7226 9.96649 5.7226H6.53584C5.66498 5.7226 5.19876 6.20696 5.19876 7.08598V18.5671C5.19876 19.4461 5.66498 19.9394 6.53584 19.9394ZM7.23077 9.07723C6.8877 9.07723 6.6326 8.80814 6.6326 8.4673C6.6326 8.13542 6.8877 7.87531 7.23077 7.87531H9.29796C9.63223 7.87531 9.88733 8.13542 9.88733 8.4673C9.88733 8.80814 9.63223 9.07723 9.29796 9.07723H7.23077ZM7.23077 17.7867C6.8877 17.7867 6.6326 17.5266 6.6326 17.1857C6.6326 16.8449 6.8877 16.5848 7.23077 16.5848H9.29796C9.63223 16.5848 9.88733 16.8449 9.88733 17.1857C9.88733 17.5266 9.63223 17.7867 9.29796 17.7867H7.23077Z" fill="white"/>
</svg>
