<svg width="31" height="37" viewBox="0 0 31 37" fill="none" xmlns="http://www.w3.org/2000/svg">
<path d="M17.9282 37C23.6944 37 27.1652 34.9273 27.1652 31.4682V23.8777C29.5865 21.7491 31 18.346 31 14.5787C31 5.82589 25.3318 0 16.8226 0C8.3553 0 2.71512 5.69985 2.71512 14.2706C2.71512 14.7468 2.72912 15.1529 2.77111 15.545L0.755756 19.1582C0.237923 20.0685 0 20.9368 0 21.7491C0 23.2896 0.965689 24.536 2.71512 24.9001V27.743C2.71512 30.6139 4.68849 32.0424 7.4316 31.7483L8.83115 31.5942C8.91512 34.9833 12.316 37 17.9282 37ZM17.9282 34.2971C13.8415 34.2971 11.3923 33.0367 11.3923 31.0061V29.0874C11.3923 28.7653 11.1964 28.6113 10.8885 28.6393L7.10971 29.0454C6.00406 29.1715 5.41625 28.6953 5.41625 27.5329V23.0795C5.41625 22.8554 5.24831 22.7014 5.01038 22.7014H4.24063C3.34492 22.7014 2.82709 22.2532 2.82709 21.553C2.82709 21.1889 2.95305 20.7547 3.20497 20.3206L5.55621 16.0912C5.45824 15.461 5.40226 14.8448 5.40226 14.2286C5.40226 7.31037 9.96479 2.70288 16.8226 2.70288C23.7084 2.70288 28.2989 7.45042 28.2989 14.5787C28.2989 18.0519 26.8433 21.0628 24.4501 22.5193V31.0061C24.4501 33.0367 22.0009 34.2971 17.9282 34.2971ZM7.58555 11.9739C7.58555 14.6488 9.43296 16.4693 12.1901 16.4693C12.5679 16.4693 12.9178 16.4413 13.2537 16.3713C14.0935 17.0995 15.2971 17.5197 16.6126 17.5197C17.1165 17.5197 17.6623 17.4637 18.1941 17.3236C18.726 17.8558 19.5237 18.1639 20.4614 18.1639H20.8113C21.0632 19.5643 21.9729 20.5167 23.1205 20.5167C24.772 20.5167 25.9476 18.6821 25.9476 16.0772C25.9476 15.391 25.9196 14.8588 25.8777 14.3827C26.3535 13.7665 26.6194 12.9542 26.6194 12.0159C26.6194 10.1533 25.3878 8.69682 23.5124 8.29069C23.1065 6.65216 21.693 5.47578 19.9716 5.47578C19.8456 5.47578 19.6777 5.50379 19.5097 5.53179C18.8939 4.84557 17.9702 4.42544 16.9765 4.42544C15.8849 4.42544 14.9332 4.83157 14.2754 5.50379C13.7856 5.30772 13.2817 5.20969 12.7499 5.20969C10.8745 5.20969 9.46095 6.49811 9.46095 8.24868V8.26268C8.29932 9.10295 7.58555 10.5034 7.58555 11.9739ZM13.2537 8.03861C13.2397 8.50076 13.5616 8.83687 14.0095 8.83687C14.4573 8.83687 14.7512 8.54277 14.7792 8.09463C14.8212 6.83422 15.7309 5.95193 16.9765 5.95193C17.7043 5.95193 18.3621 6.34406 18.628 6.94625C18.74 7.15632 18.9639 7.17033 19.2858 7.0863C19.4537 7.04428 19.6357 7.01628 19.8316 7.01628C21.1052 7.03028 22.0849 8.0106 22.0849 9.29902C22.0849 12.5061 17.4244 12.0299 17.4244 15.461C17.4244 15.6151 17.4384 15.7691 17.4664 15.9232C17.2284 15.9652 16.9765 15.9792 16.7386 15.9792C16.1508 15.9792 15.577 15.8531 15.1011 15.6431C16.1368 14.9428 16.7526 13.8085 16.7526 12.422C16.7526 12.338 16.7386 12.254 16.7386 12.1699C18.2221 11.7078 19.0059 10.6294 18.9919 8.97691C18.9919 8.57078 18.628 8.20666 18.2081 8.20666C17.8023 8.20666 17.4524 8.55678 17.4664 8.97691C17.4804 9.91522 17.1165 10.4614 16.3187 10.6995C16.1648 10.4474 15.9828 10.2233 15.7589 10.0413C15.465 9.78918 15.2691 9.69114 14.9892 9.69114C14.5553 9.69114 14.2474 9.98524 14.2474 10.3914C14.2474 10.8395 14.4853 10.9656 14.8212 11.2737C15.0871 11.5257 15.2271 11.9179 15.2271 12.394C15.2271 13.9205 14.0375 14.9288 12.2181 14.9288C10.3427 14.9288 9.11106 13.7665 9.11106 11.9739C9.11106 11.1896 9.40497 10.4474 9.9228 9.90121C10.4406 10.6855 11.3503 11.1476 12.484 11.1476C12.8898 11.1476 13.2537 10.7975 13.2537 10.3914C13.2537 9.97123 12.9038 9.62112 12.484 9.62112C11.5883 9.62112 11.0005 9.07494 11.0005 8.24868C11.0005 7.36639 11.7282 6.73619 12.7359 6.73619C12.9738 6.73619 13.2257 6.7782 13.4637 6.84822C13.3377 7.21234 13.2677 7.60447 13.2537 8.03861ZM21.623 14.9989C21.623 15.405 21.9309 15.7271 22.3648 15.7691C23.1205 15.8251 23.8063 15.7131 24.3941 15.489C24.4081 15.6571 24.4081 15.8531 24.4081 16.0632C24.4081 17.7578 23.8203 18.9902 23.1205 18.9902C22.5047 18.9902 22.0849 18.2059 22.0849 17.0855C22.0849 16.8755 21.9309 16.7634 21.735 16.7634C21.553 16.7634 21.3291 16.7774 21.1192 16.7774C19.7056 16.7774 18.9779 16.3153 18.9779 15.419C18.9779 13.1363 23.2185 13.5844 23.6104 9.8592C24.5201 10.1253 25.0799 10.9235 25.0799 12.0159C25.0799 13.4724 24.0163 14.3687 22.3928 14.2426C21.9729 14.2146 21.623 14.5787 21.623 14.9989Z" fill="white"/>
</svg>
