<svg width="20" height="17" viewBox="0 0 20 17" fill="none" xmlns="http://www.w3.org/2000/svg">
<path d="M10.001 15.7822C15.5239 15.7822 20 12.2502 20 7.8911C20 3.53202 15.5239 0 10.001 0C4.47814 0 0.00202924 3.53202 0.00202924 7.8911C0.00202924 9.6021 0.693365 11.1841 1.86512 12.4778C1.79091 13.4073 1.41985 14.2343 1.02927 14.8641C0.814447 15.2131 0.595719 15.4939 0.435579 15.6836C0.353556 15.7784 0.291062 15.8505 0.244192 15.8998C0.220757 15.9226 0.205134 15.9415 0.193416 15.9529L0.181699 15.9643C0.00202924 16.1388 -0.0487469 16.3968 0.0488995 16.6244C0.146546 16.852 0.373085 17 0.626966 17C1.74795 17 2.87674 16.6624 3.81414 16.2678C4.70858 15.8884 5.47022 15.437 5.93502 15.1069C7.17708 15.5432 8.55194 15.786 10.001 15.786V15.7822ZM5.00152 9.10511C4.31019 9.10511 3.75165 8.5626 3.75165 7.8911C3.75165 7.21959 4.31019 6.67708 5.00152 6.67708C5.69286 6.67708 6.2514 7.21959 6.2514 7.8911C6.2514 8.5626 5.69286 9.10511 5.00152 9.10511ZM10.001 9.10511C9.30968 9.10511 8.75114 8.5626 8.75114 7.8911C8.75114 7.21959 9.30968 6.67708 10.001 6.67708C10.6924 6.67708 11.2509 7.21959 11.2509 7.8911C11.2509 8.5626 10.6924 9.10511 10.001 9.10511ZM16.2504 7.8911C16.2504 8.5626 15.6918 9.10511 15.0005 9.10511C14.3092 9.10511 13.7506 8.5626 13.7506 7.8911C13.7506 7.21959 14.3092 6.67708 15.0005 6.67708C15.6918 6.67708 16.2504 7.21959 16.2504 7.8911Z" fill="white"/>
</svg>
