<svg width="30" height="30" viewBox="0 0 30 30" fill="none" xmlns="http://www.w3.org/2000/svg">
<rect x="0.444336" width="29.5556" height="29.5556" rx="7" fill="#FF9900"/>
<path d="M11.17 24H18.8381C19.9474 24 20.5951 23.4126 20.6437 22.3183L21.1538 10.6911H22.2713C22.6842 10.6911 23 10.3692 23 9.96692C23 9.5646 22.6761 9.25883 22.2713 9.25883H18.7571V8.05186C18.7571 6.76442 17.9231 6 16.5304 6H13.4534C12.0607 6 11.2267 6.76442 11.2267 8.05186V9.25883H7.72874C7.32389 9.25883 7 9.57264 7 9.96692C7 10.3773 7.32389 10.6911 7.72874 10.6911H8.85425L9.37247 22.3183C9.41296 23.4126 10.0607 24 11.17 24ZM12.9109 8.12427C12.9109 7.76218 13.1619 7.52883 13.5668 7.52883H16.4251C16.83 7.52883 17.081 7.76218 17.081 8.12427V9.25883H12.9109V8.12427ZM12.4008 21.5297C12.0769 21.5297 11.8502 21.3205 11.8421 20.9987L11.5992 12.4533C11.5911 12.1314 11.8178 11.9142 12.1579 11.9142C12.4818 11.9142 12.7085 12.1234 12.7166 12.4452L12.9595 20.9906C12.9757 21.3125 12.749 21.5297 12.4008 21.5297ZM15 21.5297C14.6599 21.5297 14.4332 21.3205 14.4332 20.9987V12.4452C14.4332 12.1314 14.6599 11.9142 15 11.9142C15.3401 11.9142 15.5749 12.1314 15.5749 12.4452V20.9987C15.5749 21.3205 15.3401 21.5297 15 21.5297ZM17.5992 21.5378C17.251 21.5378 17.0243 21.3125 17.0405 20.9987L17.2834 12.4452C17.2915 12.1234 17.5182 11.9142 17.8421 11.9142C18.1822 11.9142 18.4089 12.1314 18.4008 12.4533L18.1579 20.9987C18.1498 21.3205 17.9231 21.5378 17.5992 21.5378Z" fill="white"/>
</svg>
