<svg width="15" height="23" viewBox="0 0 15 23" fill="none" xmlns="http://www.w3.org/2000/svg">
<path d="M7.46455 4.62893C8.81161 4.62893 9.90547 3.56813 9.90547 2.33375C9.90547 1.04151 8.81161 0 7.46455 0C6.11749 0 5.05402 1.04151 5.05402 2.33375C5.05402 3.56813 6.11749 4.62893 7.46455 4.62893ZM10.9183 23C11.4956 23 12.0122 22.595 12.0122 21.9199C12.0122 21.6692 11.9413 21.4377 11.7995 21.1677L9.63201 16.9824C9.43957 16.6063 9.21675 16.2688 9.01418 15.9987L7.68737 14.205L7.7684 13.9639C8.13302 12.8549 8.27481 12.1799 8.35584 11.1191L8.57866 8.1392C8.69007 6.67338 7.79878 5.47757 6.18839 5.47757C5.0135 5.47757 4.16273 6.08512 3.06887 7.09769L1.40783 8.6696C0.840648 9.2 0.658339 9.63396 0.607697 10.309L0.395003 12.7585C0.344362 13.4239 0.739365 13.8579 1.36732 13.8964C1.96489 13.935 2.41053 13.5975 2.48143 12.8839L2.71438 10.2029L3.69683 9.37358C3.87914 9.21929 4.14247 9.30608 4.12221 9.56646L3.93991 11.9774C3.84875 13.1442 4.38555 13.9929 4.99325 14.7161L7.1607 17.3103C7.3734 17.561 7.40378 17.6574 7.50506 17.8407L9.81431 22.3057C10.0878 22.8264 10.4929 23 10.9183 23ZM11.3943 11.6109H13.8454C14.5544 11.6109 15 11.2155 15 10.6176C15 10.0197 14.5442 9.62432 13.8352 9.62432H11.2728L9.49021 7.78239L9.29777 10.4344L10.0574 11.1577C10.422 11.5048 10.7664 11.6109 11.3943 11.6109ZM1.09386 23C1.44835 23 1.76232 22.8457 1.98515 22.595L5.24646 18.9015C5.58069 18.5157 5.6212 18.4193 5.763 18.0432C5.84402 17.7925 5.91492 17.5514 5.97569 17.3199L4.11209 15.1019L3.56516 17.5224L0.47603 21.0134C0.192438 21.322 0 21.592 0 21.9778C0 22.5757 0.47603 23 1.09386 23Z" fill="white"/>
</svg>
