<svg width="20" height="20" viewBox="0 0 20 20" fill="none" xmlns="http://www.w3.org/2000/svg">
<path d="M9.14474 20H10.8647C11.4286 20 11.8515 19.6617 11.9737 19.1071L12.4436 17.1241C12.7632 17.0113 13.0639 16.8891 13.3459 16.7575L15.0846 17.8289C15.5451 18.1203 16.0996 18.0733 16.485 17.688L17.6974 16.4756C18.0827 16.0902 18.1391 15.5169 17.8289 15.047L16.7669 13.3271C16.8985 13.0451 17.0207 12.7444 17.1147 12.453L19.1165 11.9831C19.6711 11.8609 20 11.438 20 10.8741V9.18233C20 8.62782 19.6711 8.19549 19.1165 8.07331L17.1335 7.59398C17.0301 7.26504 16.8985 6.97368 16.7857 6.71992L17.8477 4.96241C18.1485 4.48308 18.1109 3.94737 17.7068 3.55263L16.485 2.34023C16.0902 1.98308 15.5921 1.91729 15.1128 2.18045L13.3459 3.27068C13.0733 3.1391 12.7726 3.01692 12.453 2.90414L11.9737 0.892857C11.8515 0.338346 11.4286 0 10.8647 0H9.14474C8.57143 0 8.1485 0.338346 8.02632 0.892857L7.55639 2.89474C7.23684 2.99812 6.92669 3.1203 6.64474 3.26128L4.88722 2.18045C4.40789 1.91729 3.91917 1.97368 3.51504 2.34023L2.29323 3.55263C1.8891 3.94737 1.8515 4.48308 2.15226 4.96241L3.21429 6.71992C3.1015 6.97368 2.97932 7.26504 2.86654 7.59398L0.883459 8.07331C0.328947 8.19549 0 8.62782 0 9.18233V10.8741C0 11.438 0.328947 11.8609 0.883459 11.9831L2.88534 12.453C2.97932 12.7444 3.1015 13.0451 3.23308 13.3271L2.17105 15.047C1.8609 15.5169 1.91729 16.0902 2.31203 16.4756L3.51504 17.688C3.90038 18.0733 4.45489 18.1203 4.92481 17.8289L6.65414 16.7575C6.93609 16.8891 7.23684 17.0113 7.55639 17.1241L8.02632 19.1071C8.1485 19.6617 8.57143 20 9.14474 20ZM10 13.2895C8.19549 13.2895 6.71992 11.8045 6.71992 9.9906C6.71992 8.19549 8.19549 6.71992 10 6.71992C11.8139 6.71992 13.2895 8.19549 13.2895 9.9906C13.2895 11.8045 11.8139 13.2895 10 13.2895Z" fill="white"/>
</svg>
