<svg width="57" height="42" viewBox="0 0 57 42" fill="none" xmlns="http://www.w3.org/2000/svg">
<g clip-path="url(#clip0_112_58)">
<path d="M30.9285 22.9511H31.6153C32.7968 22.9511 33.9774 22.9511 35.1589 22.9511C35.5803 22.9511 35.5863 22.9532 35.6798 23.3546C36.2932 26.0132 36.9036 28.6728 37.515 31.3314C37.7865 32.5154 38.058 33.6985 38.3275 34.8836C38.3536 34.9985 38.3768 35.1115 38.4632 35.2023C38.5668 35.1559 38.5749 35.051 38.598 34.9643C39.5452 31.3415 40.4905 27.7187 41.4357 24.0959C41.5111 23.8064 41.5996 23.519 41.664 23.2265C41.7133 23.0046 41.8329 22.9441 42.0521 22.9461C43.2327 22.9562 44.4142 22.9542 45.5958 22.9471C45.7959 22.9461 45.8814 23.0086 45.9326 23.2134C46.178 24.1987 46.4465 25.1771 46.7039 26.1594C47.4782 29.1216 48.2505 32.0848 49.0238 35.048C49.0409 35.1135 49.058 35.1771 49.1615 35.2214C49.3224 34.9562 49.3335 34.6415 49.4009 34.3521C50.0897 31.3868 50.7654 28.4176 51.4462 25.4504C51.6131 24.7202 51.7881 23.993 51.952 23.2618C51.9963 23.0641 52.0566 22.9431 52.304 22.9451C53.8174 22.9572 55.3317 22.9532 56.8451 22.9562C56.8914 22.9562 56.9377 22.9794 57.003 22.9965C56.9809 23.4716 56.7969 23.9053 56.6702 24.347C55.4192 28.697 54.1552 33.0429 52.8942 37.3899C52.5051 38.7323 52.1049 40.0717 51.7288 41.4181C51.6564 41.6773 51.5427 41.762 51.2813 41.759C50.0505 41.7479 48.8196 41.7439 47.5888 41.761C47.3032 41.7651 47.1886 41.6763 47.1092 41.402C46.4535 39.1488 45.7798 36.9017 45.1141 34.6516C44.731 33.3596 44.3539 32.0656 43.9667 30.7736C43.9356 30.6698 43.9396 30.5366 43.7777 30.4469C43.6932 30.577 43.655 30.7262 43.6108 30.8765C42.5821 34.3551 41.5524 37.8336 40.5206 41.3122C40.3799 41.7873 40.3738 41.7862 39.8891 41.7862C38.7247 41.7862 37.5602 41.7852 36.3958 41.7862C35.9252 41.7862 35.9805 41.7449 35.8859 41.4121C35.527 40.1473 35.1559 38.8866 34.7758 37.6279C34.7024 37.3838 34.7517 37.1781 34.8321 36.9522C35.2404 35.8034 35.5752 34.6324 35.6305 33.407C35.72 31.4393 35.5461 29.4988 34.8029 27.6582C34.1624 26.0717 33.1709 24.7232 31.8295 23.6481C31.563 23.4353 31.2915 23.2295 30.9325 22.9511H30.9285Z" fill="white"/>
<path d="M38.0127 11.7145C39.2777 14.0483 40.5497 16.3963 41.859 18.8128C41.5583 18.8128 41.3472 18.8128 41.137 18.8128C39.8559 18.8128 38.5748 18.7967 37.2937 18.8239C36.9538 18.831 36.7818 18.7069 36.637 18.4306C35.9422 17.1033 35.2373 15.7821 34.5364 14.4578C34.2327 13.8839 33.926 13.3121 33.6314 12.7331C33.5147 12.5052 33.3729 12.3822 33.0944 12.3953C32.5966 12.4175 32.0969 12.3993 31.5971 12.4023C31.1577 12.4044 31.1557 12.4064 31.1547 12.8794C31.1536 14.1986 31.1547 15.5178 31.1547 16.836C31.1547 17.3706 31.1577 17.9041 31.1536 18.4386C31.1506 18.8027 31.1456 18.8098 30.8077 18.8108C29.5266 18.8138 28.2455 18.8058 26.9644 18.8179C26.702 18.8199 26.5974 18.7382 26.6255 18.478C26.6366 18.3791 26.6276 18.2783 26.6276 18.1774C26.6276 12.3338 26.6276 6.49008 26.6276 0.646411C26.6276 0.595982 26.6276 0.546562 26.6276 0.496133C26.6255 -0.0555562 26.6185 0.00899241 27.1112 0.00899241C29.6403 0.00899241 32.1693 -0.0202562 34.6973 0.0190781C36.3384 0.0442925 37.884 0.44873 39.1852 1.53194C40.2983 2.45882 40.8977 3.67515 41.1189 5.08917C41.2778 6.10178 41.2536 7.11439 40.9932 8.10884C40.592 9.64086 39.69 10.7836 38.2872 11.5208C38.2138 11.5592 38.1424 11.6015 38.072 11.6439C38.0589 11.652 38.0499 11.6681 38.0117 11.7135L38.0127 11.7145ZM31.1557 6.27223C31.1557 7.00546 31.1577 7.7387 31.1547 8.47193C31.1547 8.65347 31.1607 8.80173 31.4081 8.79467C32.4016 8.76441 33.3971 8.85619 34.3876 8.70087C35.4444 8.53446 36.1976 7.9394 36.3897 7.02362C36.4953 6.51933 36.4902 6.00092 36.3676 5.48857C36.271 5.08514 36.0689 4.75735 35.7753 4.47193C35.3489 4.0574 34.819 3.88796 34.2558 3.79518C33.3498 3.64591 32.4347 3.74273 31.5247 3.72256C31.1637 3.71449 31.1587 3.72962 31.1567 4.12296C31.1536 4.84006 31.1567 5.55614 31.1567 6.27324L31.1557 6.27223Z" fill="white"/>
<path d="M16.447 9.43854C16.447 12.3594 16.447 15.2812 16.447 18.202C16.447 18.319 16.4409 18.436 16.447 18.552C16.459 18.7467 16.3705 18.8142 16.1815 18.8142C14.834 18.8102 13.4866 18.8102 12.1391 18.8142C11.942 18.8142 11.8786 18.7285 11.8827 18.5429C11.8897 18.1758 11.8847 17.8087 11.8847 17.4416C11.8847 15.5223 11.8847 13.6019 11.8847 11.6826C11.8847 11.2943 11.9038 11.2984 11.5036 11.2994C9.32448 11.3014 7.1454 11.2994 4.96632 11.3014C4.57012 11.3014 4.5661 11.3064 4.5651 11.7119C4.56309 13.8652 4.5651 16.0185 4.5651 18.1718C4.5651 18.2716 4.55605 18.3735 4.56711 18.4723C4.59526 18.7285 4.49772 18.8263 4.23225 18.8183C3.68421 18.8011 3.13416 18.8132 2.58512 18.8132C1.83697 18.8132 1.08782 18.8042 0.339671 18.8183C0.0782215 18.8233 -0.0273639 18.7336 0.00280335 18.4743C0.0138647 18.3755 0.0048145 18.2747 0.0048145 18.1738C0.0048145 12.3311 0.0048145 6.48847 0.0048145 0.645805C0.0048145 0.579239 0.0048145 0.512673 0.0048145 0.445099C0.0118535 0.0154466 0.0118535 0.0124209 0.445256 0.0114124C1.67608 0.00939522 2.9069 0.00939522 4.13773 0.0114124C4.56208 0.0114124 4.5661 0.0164552 4.5661 0.456193C4.56711 2.62664 4.5661 4.79608 4.5661 6.96653C4.5661 7.08353 4.57012 7.20052 4.5661 7.31752C4.56107 7.46376 4.62443 7.53133 4.77124 7.52427C4.8547 7.52024 4.93716 7.52427 5.02062 7.52427C7.16652 7.52427 9.31241 7.52427 11.4583 7.52427C11.9189 7.52427 11.8847 7.55756 11.8847 7.08756C11.8847 4.95039 11.8847 2.81424 11.8847 0.677071C11.8847 0.577222 11.8827 0.476364 11.8847 0.376516C11.8937 0.0214981 11.8947 0.0124209 12.2417 0.0114124C13.3397 0.00737807 14.4378 0.00939522 15.5349 0.00939522C15.7511 0.00939522 15.9673 0.0164552 16.1835 0.00737807C16.3756 -0.000690514 16.457 0.0810039 16.445 0.272633C16.4379 0.388619 16.444 0.506622 16.444 0.622608C16.444 3.56058 16.444 6.49855 16.444 9.43653L16.447 9.43854Z" fill="white"/>
<path d="M27.8685 23.1023C28.9425 23.3454 29.8907 23.8567 30.7555 24.5183C32.5062 25.8567 33.5922 27.6237 34.0387 29.7851C34.3937 31.5057 34.4188 33.2334 34.0387 34.95C33.373 37.9515 31.6294 40.0877 28.7715 41.2092C26.0796 42.2662 23.3324 42.2692 20.6465 41.186C17.5181 39.9233 15.7352 37.5299 15.1802 34.2158C14.9248 32.6908 14.9539 31.1588 15.2656 29.6399C15.2858 29.5441 15.333 29.4543 15.3682 29.3625C15.5844 29.3212 15.7644 29.1961 15.9565 29.1003C18.6404 27.7548 21.3232 26.4074 24.0051 25.0579C25.2942 24.4094 26.5804 23.7559 27.8675 23.1043L27.8685 23.1023ZM20.021 32.4144C20.0301 32.8027 20.0431 33.4028 20.1618 33.9949C20.5308 35.8345 21.5284 37.5945 23.979 37.9092C26.1429 38.1875 28.2848 37.3847 29.041 34.601C29.1858 34.0675 29.2612 33.5219 29.2864 32.9722C29.3477 31.6792 29.2542 30.4034 28.7303 29.1971C28.137 27.8315 27.1214 26.9772 25.6542 26.6898C25.1625 26.593 24.6637 26.5829 24.164 26.6202C22.3358 26.7543 21.1 27.6873 20.4474 29.4028C20.1045 30.3045 20.0089 31.2465 20.02 32.4155L20.021 32.4144Z" fill="white"/>
<path d="M51.5105 11.2718C50.6195 11.3343 49.7286 11.2839 48.8376 11.3001C48.7059 11.3021 48.5732 11.3091 48.4414 11.299C48.2423 11.2829 48.19 11.3767 48.19 11.5623C48.191 12.0252 48.176 12.4881 48.1679 12.9521C47.9879 13.0368 47.8059 13.1175 47.6279 13.2052C46.3056 13.8608 44.9843 14.5184 43.6619 15.175C43.6519 15.0096 43.6348 14.8432 43.6348 14.6778C43.6338 9.97176 43.6328 5.26677 43.6348 0.560768C43.6348 -0.0352986 43.5785 0.0110957 44.1587 0.0110957C48.1659 0.0110957 52.1731 0.0110957 56.1813 0.0110957C56.298 0.0110957 56.4136 0.0131128 56.5303 0.0131128C56.654 0.0131128 56.7083 0.0816958 56.7113 0.197682C56.7143 0.314676 56.7143 0.431671 56.7143 0.547656C56.7143 1.41503 56.7183 2.28341 56.7133 3.15078C56.7093 3.79728 56.7978 3.71659 56.1703 3.7176C54.3582 3.72163 52.5452 3.71861 50.7331 3.71861C50.0182 3.71861 49.3032 3.71659 48.5883 3.71861C48.2051 3.72063 48.1991 3.72466 48.1981 4.09582C48.1941 5.11347 48.1951 6.13111 48.1981 7.14977C48.1991 7.51589 48.2041 7.52093 48.5872 7.52194C50.5662 7.52395 52.5452 7.52194 54.5232 7.52194C54.9385 7.52194 55.3548 7.53202 55.7701 7.5179C56.0064 7.50983 56.1029 7.58951 56.0858 7.83258C56.0597 8.21483 56.117 8.59909 56.0526 8.98134C54.5402 9.74382 53.0269 10.5073 51.5145 11.2698L51.5105 11.2718Z" fill="white"/>
<path d="M19.2739 9.36146C19.2739 6.49106 19.2739 3.62066 19.2739 0.750262C19.2739 0.666551 19.2739 0.583848 19.2739 0.500136C19.2739 -0.0202875 19.2387 0.00996974 19.7586 0.00996974C20.9724 0.00996974 22.1871 0.00896117 23.4008 0.00996974C23.8302 0.00996974 23.8342 0.014004 23.8342 0.448699C23.8352 3.8365 23.8342 7.22429 23.8342 10.6121C23.8342 13.1325 23.8342 15.6519 23.8342 18.1723C23.8342 18.2893 23.8262 18.4063 23.8362 18.5223C23.8543 18.7372 23.7679 18.8188 23.5496 18.8148C22.9674 18.8047 22.3852 18.8118 21.804 18.8118C21.1051 18.8118 20.4072 18.8138 19.7083 18.8118C19.279 18.8098 19.2749 18.8078 19.2749 18.3731C19.2739 15.9202 19.2749 13.4663 19.2749 11.0135C19.2749 10.4628 19.2749 9.91214 19.2749 9.36146H19.2739Z" fill="white"/>
<path d="M0.297571 36.9531C0.289527 36.7867 0.274443 36.6202 0.274443 36.4548C0.273437 32.1321 0.273438 27.8104 0.273438 23.4876C0.273438 23.4543 0.273438 23.4211 0.273438 23.3878C0.278465 22.9571 0.278465 22.9541 0.708851 22.9531C1.70638 22.9511 2.70492 22.9672 3.70245 22.945C4.0554 22.9369 4.27361 23.0418 4.47372 23.3444C5.34656 24.6626 6.24756 25.9627 7.13749 27.2698C8.07469 28.6455 9.01289 30.0201 9.94506 31.3999C10.0647 31.5774 10.2115 31.7408 10.2769 31.9526C9.12149 32.5325 7.96609 33.1134 6.81068 33.6934C6.26767 32.9178 5.72667 32.1412 5.18165 31.3666C5.08813 31.2335 5.0288 31.0721 4.81662 30.941C4.80255 32.237 4.78847 33.4896 4.77439 34.7423C4.60948 34.8169 4.44255 34.8865 4.28065 34.9672C2.95229 35.6288 1.62493 36.2925 0.296566 36.9551L0.297571 36.9531Z" fill="white"/>
<path d="M6.81079 33.6915C7.9662 33.1116 9.1216 32.5306 10.277 31.9507C10.7657 32.4983 11.0805 33.1781 11.6396 33.8105C11.6516 32.8756 11.6637 32.0415 11.6748 31.2084C11.9402 31.158 12.1564 30.9946 12.3978 30.8887C12.8654 30.6819 13.2917 30.3864 13.7855 30.2351C13.7623 30.5508 13.7372 30.8665 13.7161 31.1822C13.6246 32.5528 13.6769 33.9093 14.0439 35.2447C14.2158 35.87 14.3526 36.5024 14.6161 37.1025C14.9811 37.9325 15.4426 38.697 16.0198 39.3919C16.1747 39.5775 16.2622 39.7722 16.2531 40.0263C16.235 40.5094 16.237 40.9936 16.2531 41.4767C16.2612 41.7248 16.1606 41.7903 15.9324 41.7893C14.8353 41.7823 13.7382 41.7802 12.6421 41.7913C12.4128 41.7934 12.2831 41.7026 12.1594 41.521C11.1478 40.0354 10.1272 38.5579 9.11255 37.0742C8.34228 35.9487 7.57905 34.8191 6.8118 33.6915H6.81079Z" fill="white"/>
<path d="M43.6611 15.1741C44.9834 14.5175 46.3048 13.8599 47.6271 13.2043C47.8051 13.1156 47.9871 13.0349 48.1671 12.9512C48.1761 13.5341 48.1832 14.1171 48.1932 14.7C48.2003 15.0994 48.2013 15.1045 48.6136 15.1045C51.1064 15.1065 53.6002 15.1045 56.093 15.1045C56.2097 15.1045 56.3263 15.1105 56.442 15.1045C56.626 15.0934 56.7125 15.1589 56.7115 15.3586C56.7054 16.4257 56.7064 17.4938 56.7115 18.5609C56.7115 18.7595 56.619 18.8251 56.4369 18.814C56.3374 18.808 56.2378 18.814 56.1383 18.814C52.1653 18.814 48.1932 18.814 44.2202 18.814C44.1699 18.814 44.1207 18.814 44.0704 18.814C43.638 18.808 43.6299 18.808 43.634 18.3743C43.646 17.3082 43.5968 16.2411 43.6611 15.1751V15.1741Z" fill="white"/>
<path d="M27.8686 23.1023C26.5815 23.7538 25.2943 24.4073 24.0062 25.0559C21.3243 26.4053 18.6414 27.7528 15.9576 29.0982C15.7655 29.194 15.5855 29.3191 15.3693 29.3604C15.3412 29.0317 15.4739 28.7382 15.5835 28.4447C16.7198 25.4038 18.918 23.5783 22.0383 22.8541C23.8282 22.4386 25.6262 22.4719 27.4121 22.9258C27.572 22.9661 27.7369 22.9923 27.8696 23.1023H27.8686Z" fill="white"/>
<path d="M0.29777 36.953C1.62513 36.2904 2.95249 35.6268 4.28186 34.9651C4.44376 34.8845 4.61068 34.8149 4.7756 34.7402C4.78364 34.8229 4.79772 34.9056 4.79772 34.9883C4.79872 37.1195 4.79973 39.2496 4.79772 41.3807C4.79772 41.776 4.79168 41.7841 4.4347 41.7851C3.15762 41.7891 1.87954 41.7841 0.602459 41.7891C0.389278 41.7891 0.265592 41.7609 0.268609 41.4957C0.286709 39.9818 0.28872 38.4669 0.296765 36.953H0.29777Z" fill="white"/>
<path d="M13.7845 30.236C13.2907 30.3873 12.8644 30.6828 12.3968 30.8895C12.1554 30.9964 11.9402 31.1588 11.6738 31.2092C11.6667 30.6424 11.6547 30.0756 11.6537 29.5088C11.6516 27.4896 11.6537 25.4715 11.6526 23.4523C11.6526 22.8744 11.6356 22.9531 12.1715 22.9521C13.4013 22.95 14.6322 22.949 15.862 22.9521C16.2381 22.9521 16.2381 22.9591 16.2461 23.3404C16.2461 23.3575 16.2461 23.3736 16.2461 23.3908C16.3044 24.1876 16.2894 24.9611 15.5905 25.5229C14.6593 26.8401 14.1304 28.3167 13.8699 29.8991C13.8508 30.0131 13.8559 30.1341 13.7835 30.234L13.7845 30.236Z" fill="white"/>
<path d="M51.5105 11.2719C53.0239 10.5094 54.5363 9.74588 56.0487 8.9834C56.1151 9.66318 56.0597 10.344 56.0799 11.0237C56.0849 11.2043 56.0286 11.3031 55.8285 11.3011C54.3885 11.2829 52.9485 11.3354 51.5095 11.2719H51.5105Z" fill="white"/>
</g>
<defs>
<clipPath id="clip0_112_58">
<rect width="57" height="42" fill="white"/>
</clipPath>
</defs>
</svg>
