<svg width="33" height="26" viewBox="0 0 33 26" fill="none" xmlns="http://www.w3.org/2000/svg">
<path d="M4.56902 26H28.431C31.4398 26 33 24.4534 33 21.4855V4.51447C33 1.54662 31.4398 0 28.431 0H4.56902C1.56015 0 0 1.53269 0 4.51447V21.4855C0 24.4534 1.56015 26 4.56902 26ZM10.7818 13C9.11017 13 7.74504 11.5788 7.74504 9.68382C7.74504 7.88639 9.11017 6.40943 10.7818 6.40943C12.4812 6.40943 13.8324 7.88639 13.8324 9.68382C13.8324 11.5788 12.4812 13.0139 10.7818 13ZM19.9198 8.45766C19.3905 8.45766 19.0004 8.05359 19.0004 7.53805C19.0004 7.05037 19.3905 6.66024 19.9198 6.66024H27.233C27.7484 6.66024 28.1385 7.05037 28.1385 7.53805C28.1385 8.05359 27.7484 8.45766 27.233 8.45766H19.9198ZM19.9198 13.9057C19.3905 13.9057 19.0004 13.5016 19.0004 13C19.0004 12.4984 19.3905 12.1083 19.9198 12.1083H27.233C27.7484 12.1083 28.1385 12.4984 28.1385 13C28.1385 13.5016 27.7484 13.9057 27.233 13.9057H19.9198ZM5.47446 19.4373C4.95905 19.4373 4.69439 19.075 4.69439 18.6152C4.69439 17.3055 6.61672 13.9475 10.7818 13.9475C14.9607 13.9475 16.897 17.3055 16.897 18.6152C16.897 19.075 16.6323 19.4373 16.1169 19.4373H5.47446ZM19.9198 19.3537C19.3905 19.3537 19.0004 18.9636 19.0004 18.4759C19.0004 17.9603 19.3905 17.5563 19.9198 17.5563H27.233C27.7484 17.5563 28.1385 17.9603 28.1385 18.4759C28.1385 18.9636 27.7484 19.3537 27.233 19.3537H19.9198Z" fill="white"/>
</svg>
