<svg width="38" height="27" viewBox="0 0 38 27" fill="none" xmlns="http://www.w3.org/2000/svg">
<path d="M4.19812 24.7116H24.2189C23.4533 23.446 23.0195 21.9886 23.0195 20.4034C23.0195 15.75 26.8475 11.9531 31.5561 12.0043V7.12074C31.5561 4.38494 30.1014 2.95312 27.3452 2.95312H23.951C22.9557 2.95312 22.6367 2.78693 22.0114 2.13494L21.0034 1.0483C20.3398 0.34517 19.6635 0 18.362 0H13.1175C11.816 0 11.1397 0.34517 10.4762 1.0483L9.4681 2.13494C8.85561 2.77415 8.52384 2.95312 7.52854 2.95312H4.19812C1.44191 2.95312 0 4.38494 0 7.12074V20.544C0 23.2798 1.44191 24.7116 4.19812 24.7116ZM15.7717 20.6974C11.9563 20.6974 8.89389 17.6293 8.89389 13.794C8.89389 9.94602 11.9563 6.87784 15.7717 6.87784C19.5997 6.87784 22.6622 9.94602 22.6622 13.794C22.6622 17.6293 19.5997 20.6974 15.7717 20.6974ZM23.4788 9.08949C23.4788 8.18182 24.2572 7.3892 25.1887 7.3892C26.1075 7.3892 26.8858 8.18182 26.8858 9.08949C26.8858 10.0355 26.1075 10.777 25.1887 10.7898C24.2572 10.7898 23.4788 10.0483 23.4788 9.08949ZM15.7717 18.3835C18.3109 18.3835 20.3526 16.3381 20.3526 13.794C20.3526 11.2372 18.3109 9.19176 15.7717 9.19176C13.2451 9.19176 11.2035 11.2372 11.2035 13.794C11.2035 16.3381 13.2579 18.3835 15.7717 18.3835ZM31.4157 27C34.9886 27 38 24.0085 38 20.4034C38 16.7983 35.0269 13.8196 31.4157 13.8196C27.8173 13.8196 24.8442 16.7983 24.8442 20.4034C24.8442 24.0341 27.8173 27 31.4157 27ZM34.9503 21.4901C34.3633 21.4901 33.8784 20.9915 33.8784 20.4034C33.8784 19.8281 34.3633 19.3295 34.9503 19.3295C35.5373 19.3295 36.0222 19.8281 36.0222 20.4034C36.0222 20.9915 35.5373 21.4901 34.9503 21.4901ZM27.8811 21.4901C27.3069 21.4901 26.822 20.9915 26.822 20.4034C26.822 19.8281 27.3069 19.3295 27.8811 19.3295C28.4681 19.3295 28.953 19.8281 28.953 20.4034C28.953 20.9915 28.4681 21.4901 27.8811 21.4901ZM31.4285 21.4901C30.8543 21.4901 30.3566 20.9915 30.3566 20.4034C30.3566 19.8281 30.8543 19.3295 31.4285 19.3295C32.0027 19.3295 32.5003 19.8281 32.5003 20.4034C32.5003 20.9915 32.0027 21.4901 31.4285 21.4901Z" fill="white"/>
</svg>
