<svg width="21" height="19" viewBox="0 0 21 19" fill="none" xmlns="http://www.w3.org/2000/svg">
<path d="M3.39342 19H17.5963C19.8345 19 21 17.8614 21 15.6859V3.31407C21 1.13858 19.8345 0 17.5963 0H3.39342C1.16552 0 0 1.12841 0 3.31407V15.6859C0 17.8614 1.16552 19 3.39342 19ZM3.3831 16.977C2.52701 16.977 2.05255 16.5399 2.05255 15.6453V6.29267C2.05255 5.39807 2.52701 4.96094 3.3831 4.96094H17.6066C18.4627 4.96094 18.9371 5.39807 18.9371 6.29267V15.6453C18.9371 16.5399 18.4627 16.977 17.6066 16.977H3.3831ZM5.14686 8.61049H15.8635C16.2348 8.61049 16.5133 8.32584 16.5133 7.94971C16.5133 7.5939 16.2348 7.31942 15.8635 7.31942H5.14686C4.76523 7.31942 4.48674 7.5939 4.48674 7.94971C4.48674 8.32584 4.76523 8.61049 5.14686 8.61049ZM5.14686 11.6094H15.8635C16.2348 11.6094 16.5133 11.3349 16.5133 10.9791C16.5133 10.6132 16.2348 10.3184 15.8635 10.3184H5.14686C4.76523 10.3184 4.48674 10.6132 4.48674 10.9791C4.48674 11.3349 4.76523 11.6094 5.14686 11.6094ZM5.14686 14.6083H11.9131C12.2844 14.6083 12.5629 14.3339 12.5629 13.9781C12.5629 13.6121 12.2844 13.3274 11.9131 13.3274H5.14686C4.76523 13.3274 4.48674 13.6121 4.48674 13.9781C4.48674 14.3339 4.76523 14.6083 5.14686 14.6083Z" fill="white"/>
</svg>
