<svg width="24" height="22" viewBox="0 0 24 22" fill="none" xmlns="http://www.w3.org/2000/svg">
<path d="M8.2793 1.21289H19.8281C19.7666 0.421875 19.3008 0 18.4482 0H9.65918C8.80664 0 8.34082 0.421875 8.2793 1.21289ZM6.55664 3.77051H21.5596C21.4365 2.93555 21.0059 2.45215 20.0654 2.45215H8.04199C7.10156 2.45215 6.67969 2.93555 6.55664 3.77051ZM20.6719 5.2207H7.41797C5.51074 5.2207 4.52637 6.19629 4.52637 8.08594V11.4609C7.69922 11.4609 10.3096 14.0713 10.3096 17.2354C10.3096 18.3691 9.9668 19.4238 9.38672 20.3203H20.6719C22.5703 20.3203 23.5723 19.3359 23.5723 17.4551V8.08594C23.5723 6.20508 22.5703 5.2207 20.6719 5.2207ZM4.52637 21.7705C6.9873 21.7705 9.06152 19.7139 9.06152 17.2354C9.06152 14.7568 7.01367 12.709 4.52637 12.709C2.04785 12.709 0 14.7568 0 17.2354C0 19.7227 2.04785 21.7705 4.52637 21.7705ZM4.52637 17.4287C3.73535 17.4287 3.12891 16.7783 3.12891 15.8818C3.12891 15.082 3.74414 14.4053 4.52637 14.4053C5.31738 14.4053 5.93262 15.082 5.93262 15.8818C5.93262 16.7783 5.31738 17.4287 4.52637 17.4287ZM4.53516 20.6191C3.25195 20.6191 2.25879 19.9424 1.99512 19.3535V19.3096C2.27637 18.7646 3.20801 18.1582 4.52637 18.1582C5.85352 18.1582 6.78516 18.7646 7.06641 19.3096V19.3535C6.79395 19.9512 5.80957 20.6191 4.53516 20.6191Z" fill="white"/>
</svg>
