<svg width="25" height="16" viewBox="0 0 25 16" fill="none" xmlns="http://www.w3.org/2000/svg">
<path d="M16.6289 7.7168C18.5537 7.7168 20.1797 6.01172 20.1797 3.80566C20.1797 1.65234 18.5449 0 16.6289 0C14.7217 0 13.0781 1.67871 13.0869 3.82324C13.0869 6.01172 14.7041 7.7168 16.6289 7.7168ZM6.46875 7.91895C8.14746 7.91895 9.5625 6.4248 9.5625 4.50879C9.5625 2.62793 8.12988 1.19531 6.46875 1.19531C4.80762 1.19531 3.375 2.6543 3.38379 4.52637C3.38379 6.4248 4.79883 7.91895 6.46875 7.91895ZM1.62598 15.8994H8.21777C7.27734 14.5547 8.28809 11.9004 10.2744 10.3359C9.30762 9.71191 8.05078 9.25488 6.46875 9.25488C2.54004 9.25488 0 12.1465 0 14.5283C0 15.3984 0.439453 15.8994 1.62598 15.8994ZM11.1533 15.8906H22.1045C23.5547 15.8906 24.0557 15.4512 24.0557 14.6426C24.0557 12.3838 21.1816 9.27246 16.6289 9.27246C12.0674 9.27246 9.20215 12.3838 9.20215 14.6426C9.20215 15.4512 9.70312 15.8906 11.1533 15.8906Z" fill="white"/>
</svg>
