<svg width="33" height="33" viewBox="0 0 33 33" fill="none" xmlns="http://www.w3.org/2000/svg">
<path d="M16.492 33C25.5355 33 33 25.5319 33 16.5C33 7.46808 25.5196 0 16.4761 0C7.44853 0 0 7.46808 0 16.5C0 25.5319 7.46448 33 16.492 33ZM8.77235 16.516C8.77235 15.5745 9.44224 14.9202 10.3673 14.9202H14.913V10.3723C14.913 9.44681 15.551 8.79255 16.4601 8.79255C17.4012 8.79255 18.0551 9.44681 18.0551 10.3723V14.9202H22.6167C23.5259 14.9202 24.1957 15.5745 24.1957 16.516C24.1957 17.4255 23.5259 18.0798 22.6167 18.0798H18.0551V22.6277C18.0551 23.5372 17.4012 24.2074 16.4601 24.2074C15.551 24.2074 14.913 23.5372 14.913 22.6277V18.0798H10.3673C9.44224 18.0798 8.77235 17.4255 8.77235 16.516Z" fill="white"/>
</svg>
