<svg width="40" height="40" viewBox="0 0 40 40" fill="none" xmlns="http://www.w3.org/2000/svg">
<path d="M19.9903 40C30.9522 40 40 30.9478 40 20C40 9.05223 30.9328 0 19.971 0C9.02852 0 0 9.05223 0 20C0 30.9478 9.04785 40 19.9903 40ZM19.971 23.1528C16.1817 23.1335 13.2431 19.9613 13.2431 15.764C13.2044 11.8182 16.2011 8.52998 19.971 8.52998C23.7409 8.52998 26.6989 11.8182 26.6989 15.764C26.6989 19.9613 23.7603 23.1915 19.971 23.1528ZM19.971 36.6925C15.6404 36.6925 11.0391 34.8936 8.11986 31.7602C10.3432 28.4333 14.7511 26.499 19.971 26.499C25.1329 26.499 29.5795 28.3946 31.8221 31.7602C28.9029 34.8936 24.3016 36.6925 19.971 36.6925Z" fill="black"/>
</svg>
