<svg width="21" height="22" viewBox="0 0 21 22" fill="none" xmlns="http://www.w3.org/2000/svg">
<path d="M19.7094 3.59576L11.3094 0.157928C11.0535 0.0536669 10.7792 0 10.5022 0C10.2252 0 9.95087 0.0536669 9.695 0.157928L1.295 3.59576C0.511875 3.91376 0 4.66579 0 5.49946C0 14.0296 5.00938 19.9255 9.69063 21.8421C10.2069 22.0526 10.7887 22.0526 11.305 21.8421C15.0544 20.3079 21 15.0094 21 5.49946C21 4.66579 20.4881 3.91376 19.7094 3.59576ZM10.5044 19.1778L10.5 2.80506L18.1956 5.95498C18.0512 12.4611 14.6038 17.1752 10.5044 19.1778Z" fill="white"/>
</svg>
