<svg width="30" height="30" viewBox="0 0 30 30" fill="none" xmlns="http://www.w3.org/2000/svg">
<rect width="29.5556" height="29.5556" rx="7" fill="#FF9900"/>
<path d="M19.375 13.6875C19.375 14.9426 18.9676 16.102 18.2812 17.0426L21.743 20.507C22.0848 20.8488 22.0848 21.4039 21.743 21.7457C21.4012 22.0875 20.8461 22.0875 20.5043 21.7457L17.0426 18.2813C16.102 18.9703 14.9426 19.375 13.6875 19.375C10.5457 19.375 8 16.8293 8 13.6875C8 10.5457 10.5457 8 13.6875 8C16.8293 8 19.375 10.5457 19.375 13.6875ZM13.6875 17.625C15.8613 17.625 17.625 15.8613 17.625 13.6875C17.625 11.5137 15.8613 9.75 13.6875 9.75C11.5137 9.75 9.75 11.5137 9.75 13.6875C9.75 15.8613 11.5137 17.625 13.6875 17.625Z" fill="white"/>
</svg>
