<svg width="30" height="30" viewBox="0 0 30 30" fill="none" xmlns="http://www.w3.org/2000/svg">
<rect width="29.5556" height="29.5556" rx="7" fill="#FF9900"/>
<path d="M23.0537 8.36035L23.7293 7.64823C24.0717 7.28766 24.0987 6.79188 23.7564 6.44934L23.5221 6.20595C23.2158 5.89947 22.7023 5.94454 22.369 6.27807L21.6663 6.96315L23.0537 8.36035ZM12.3872 17.9515L14.2341 17.1762L22.396 9.00937L21.0087 7.6302L12.8467 15.8061L12.0359 17.5909C11.9458 17.7982 12.18 18.0326 12.3872 17.9515ZM8.9639 24H19.4592C21.1889 24 22.2068 22.9904 22.2068 21.0614V11.5424L20.4051 13.3362V20.8991C20.4051 21.7645 19.9456 22.1972 19.342 22.1972H9.08101C8.2522 22.1972 7.80176 21.7645 7.80176 20.8991V10.8843C7.80176 10.019 8.2522 9.58628 9.08101 9.58628H16.7295L18.5222 7.78344H8.9639C7.018 7.78344 6 8.79303 6 10.7221V21.0614C6 22.9904 7.018 24 8.9639 24Z" fill="white"/>
</svg>
